# xmcd
#
# Track frame offsets:
#	150
#	12955
#	26690
#	42091
#	55384
#	70941
#	85654
#	101059
#	114781
#	128663
#	143061
#	158377
#
# Disc length: 2301 seconds
#
# Revision: 1
# Processed by: cddbd v1.5.2PL0 Copyright (c) Steve Scherf et al.
# Submitted via: audiograbber 1.83.01
#
DISCID=8d08fb0c
DTITLE=Linda Feller - Jeden Tag kann ein Anfang sein
DYEAR=1900
DGENRE=Country
TTITLE0=Wunderbar
TTITLE1=Jeder Tag kann ein Anfang sein
TTITLE2=Tu's doch
TTITLE3=Männer wollen immer nur das eine
TTITLE4=Frag mich nicht
TTITLE5=Das Imponiert mir nicht
TTITLE6=Und dann steht Sie wieder im Raum
TTITLE7=Könntet ihr noch Kinder kriege
TTITLE8=Geh' nicht vorbei
TTITLE9=Komm und red' mit mir
TTITLE10=Feuer und Eis
TTITLE11=Frauen sind halt keine Männer
EXTD=
EXTT0=
EXTT1=
EXTT2=
EXTT3=
EXTT4=
EXTT5=
EXTT6=
EXTT7=
EXTT8=
EXTT9=
EXTT10=
EXTT11=
PLAYORDER=
